<svg width="17" height="21" viewBox="0 0 17 21" fill="none" xmlns="http://www.w3.org/2000/svg">
<path d="M16.283 8.64151C16.283 14.5849 8.64151 19.6792 8.64151 19.6792C8.64151 19.6792 1 14.5849 1 8.64151C1 6.61486 1.80509 4.67121 3.23815 3.23815C4.67121 1.80509 6.61486 1 8.64151 1C10.6682 1 12.6118 1.80509 14.0449 3.23815C15.4779 4.67121 16.283 6.61486 16.283 8.64151Z" stroke="#E2CD72" stroke-width="1.4" stroke-linecap="round" stroke-linejoin="round"/>
<path d="M8.64141 11.1881C10.0482 11.1881 11.1886 10.0477 11.1886 8.64092C11.1886 7.23416 10.0482 6.09375 8.64141 6.09375C7.23465 6.09375 6.09424 7.23416 6.09424 8.64092C6.09424 10.0477 7.23465 11.1881 8.64141 11.1881Z" stroke="#E2CD72" stroke-width="1.4" stroke-linecap="round" stroke-linejoin="round"/>
</svg>
