<?xml version="1.0" encoding="UTF-8" standalone="no"?>
<!-- Created with Inkscape (http://www.inkscape.org/) -->
<svg
   xmlns:svg="http://www.w3.org/2000/svg"
   xmlns="http://www.w3.org/2000/svg"
   version="1.0" viewBox="0 0 577 600"
   width="288"
   height="300"
   id="svg2272">
  <defs
     id="defs2274" />
  <g
     id="g4334">
    <path
       d="M 107.95,115.404 C 121.2936,115.404 132.1148,126.2253 132.1148,139.5689 C 132.1148,152.9125 121.2936,163.7337 107.95,163.7337 C 94.6063,163.7337 83.7851,152.9125 83.7851,139.5689 C 83.7851,126.2253 94.6063,115.404 107.95,115.404 L 107.95,115.404 z "
       transform="matrix(11.938829,0,0,11.936395,-1000.296,-1367.517)"
       style="fill:#1c3481;fill-rule:evenodd"
       id="_131861944" />
    <path
       d="M 107.95,115.743 C 121.1065,115.743 131.776,126.4125 131.776,139.5691 C 131.776,152.7256 121.1065,163.3951 107.95,163.3951 C 94.7934,163.3951 84.1239,152.7256 84.1239,139.5691 C 84.1239,126.4125 94.7934,115.743 107.95,115.743 L 107.95,115.743 z M 107.95,116.023 C 120.9519,116.023 131.496,126.5671 131.496,139.5691 C 131.496,152.571 120.9519,163.1151 107.95,163.1151 C 94.948,163.1151 84.4039,152.571 84.4039,139.5691 C 84.4039,126.5671 94.948,116.023 107.95,116.023 L 107.95,116.023 z "
       transform="matrix(11.938829,0,0,11.936395,-1000.296,-1367.517)"
       style="fill:#ffffff;fill-rule:evenodd"
       id="_131859272" />
    <path
       d="M 107.714,114.567 C 110.1855,114.567 112.1899,116.5714 112.1899,119.0429 C 112.1899,121.5144 110.1855,123.5188 107.714,123.5188 C 105.2425,123.5188 103.2381,121.5144 103.2381,119.0429 C 103.2381,116.5714 105.2425,114.567 107.714,114.567 z "
       transform="matrix(11.938829,0,0,11.936395,-1000.296,-1367.517)"
       style="fill:#1c3481;fill-rule:evenodd"
       id="_131779832" />
    <path
       d="M 101.859,156.843 C 102.6177,159.1502 103.5665,161.7851 104.3251,164.0923 C 107.0098,165.0929 109.3179,165.0708 112.3149,164.0837 C 113.1221,161.8238 114.0695,159.103 114.8767,156.843 C 110.4953,158.3553 106.2377,158.4974 101.859,156.843 z "
       transform="matrix(11.938829,0,0,11.936395,-1000.296,-1367.517)"
       style="fill:#f1bc00;fill-rule:evenodd"
       id="_131783040" />
    <path
       d="M 107.714,115.602 C 109.6141,115.602 111.155,117.1429 111.155,119.043 C 111.155,120.9431 109.6141,122.484 107.714,122.484 C 105.8139,122.484 104.273,120.9431 104.273,119.043 C 104.273,117.1429 105.8139,115.602 107.714,115.602 z "
       transform="matrix(11.938829,0,0,11.936395,-1000.296,-1367.517)"
       style="fill:#f1bc00;fill-rule:evenodd"
       id="_131783896" />
    <path
       d="M 107.778,122.475 C 117.1838,122.475 124.8116,130.1028 124.8116,139.5086 C 124.8116,148.9144 117.1838,156.5422 107.778,156.5422 C 98.3722,156.5422 90.7444,148.9144 90.7444,139.5086 C 90.7444,130.1028 98.3722,122.475 107.778,122.475 L 107.778,122.475 z "
       transform="matrix(11.938829,0,0,11.936395,-1000.296,-1367.517)"
       style="fill:#f1bc00;fill-rule:evenodd"
       id="_132154072" />
    <path
       d="M 107.778,128.055 C 114.1027,128.055 119.2319,133.1841 119.2319,139.5089 C 119.2319,145.8336 114.1027,150.9627 107.778,150.9627 C 101.4533,150.9627 96.3241,145.8336 96.3241,139.5089 C 96.3241,133.1841 101.4533,128.055 107.778,128.055 z "
       transform="matrix(11.938829,0,0,11.936395,-1000.296,-1367.517)"
       style="fill:#1c3481;fill-rule:evenodd"
       id="_132155144" />
    <path
       d="M 102.653,157.602 C 103.3007,159.572 104.0787,161.8795 104.7264,163.8495 C 107.1259,164.5828 109.4998,164.5575 111.8485,163.7564 C 112.5377,161.8267 113.3467,159.5317 114.0359,157.602 C 109.7463,158.8018 106.5671,158.8116 102.653,157.602 L 102.653,157.602 z "
       transform="matrix(11.938829,0,0,11.936395,-1000.296,-1367.517)"
       style="fill:#1c3481;fill-rule:evenodd"
       id="_132155408" />
    <path
       d="M 92.8168,145.068 L 98.2345,145.068 L 99.5911,144.3141 L 116.477,144.3141 L 117.9419,145.086 L 122.5152,145.086 C 118.5835,141.6066 115.0171,138.2833 111.0855,134.8038 C 110.2402,134.259 109.0192,134.5876 108.062,135.6007 C 108.2253,135.7891 108.3782,135.9386 108.5415,136.127 C 108.3545,135.9611 108.2236,135.778 108.062,135.6007 C 106.7303,134.1398 105.5689,133.2974 104.2746,134.5143 L 92.8168,145.068 z "
       transform="matrix(11.938829,0,0,11.936395,-1000.296,-1367.517)"
       style="fill:#ffffff;fill-rule:evenodd;stroke:#1c3481;stroke-width:0.17172614;stroke-linecap:round;stroke-linejoin:round;stroke-miterlimit:4;stroke-dasharray:none"
       id="_131779688" />
    <path
       d="M 103.352,158.286 C 103.9336,160.0547 104.5151,161.7982 105.0966,163.5668 C 107.2508,164.0636 109.3822,164.0357 111.4909,163.4833 C 112.1096,161.7508 112.7283,160.0184 113.3471,158.286 C 110.0217,159.1949 106.6772,159.3341 103.352,158.286 z "
       transform="matrix(11.938829,0,0,11.936395,-1000.296,-1367.517)"
       style="fill:#f1bc00;fill-rule:evenodd"
       id="_132158352" />
    <path
       d="M 107.714,116.342 C 109.2051,116.342 110.4143,117.5512 110.4143,119.0423 C 110.4143,120.5334 109.2051,121.7427 107.714,121.7427 C 106.2229,121.7427 105.0136,120.5334 105.0136,119.0423 C 105.0136,117.5512 106.2229,116.342 107.714,116.342 z "
       transform="matrix(11.938829,0,0,11.936395,-1000.296,-1367.517)"
       style="fill:none;fill-rule:evenodd;stroke:#1c3481;stroke-width:0.60000002"
       id="_132159736" />
    <path
       d="M 123.938,153.679 C 123.0355,154.6794 122.0517,155.6549 120.9555,156.5957 C 120.2977,157.1602 119.396,157.6873 118.5154,158.0993 C 118.1175,157.9405 117.8952,157.9643 117.5075,157.7104 C 117.4043,157.2314 117.4847,156.627 117.5264,156.1384 C 118.2029,155.6164 118.8794,155.0945 119.556,154.5726 C 119.5499,153.8971 119.5439,153.2215 119.5378,152.546 C 123.6501,148.2465 125.6562,143.6444 125.1519,138.7717 C 125.1085,137.3306 124.8582,135.8838 124.388,134.4318 C 123.8563,132.7895 123.2611,131.2302 122.1862,129.5748 C 121.3738,128.743 120.4657,127.7822 119.9303,126.8786 C 119.5725,126.1879 119.6733,125.4736 119.931,124.9195 C 118.7698,124.3206 118.0143,123.5253 117.7119,122.422 C 117.6028,122.0239 117.6531,121.9925 117.9737,121.8569 C 118.937,121.4496 119.203,121.1359 120.0022,121.6888 C 121.5669,122.8004 122.8386,124.135 123.9646,125.5194 C 124.3124,125.5767 124.7265,125.6582 125.1353,125.7547 C 126.2774,126.0241 126.9128,126.2749 127.5362,127.2647 C 127.7733,127.6412 127.9842,128.0405 128.1735,128.4512 C 128.8979,130.023 129.6662,131.7491 130.2485,133.5615 C 131.485,137.9242 131.5727,141.9386 130.0827,146.2386 C 129.1766,148.8537 128.018,151.2861 126.3729,153.4694 C 125.2268,153.7543 124.4151,153.8242 123.938,153.679 L 123.938,153.679 z "
       transform="matrix(11.938829,0,0,11.936395,-1000.296,-1367.517)"
       style="fill:#ffffff;fill-rule:evenodd"
       id="_132158328" />
    <path
       d="M 124.558,126.986 C 124.2826,126.3086 123.937,125.6341 123.2972,125.216 C 121.2574,123.8831 120.5085,124.2261 118.7338,122.6207 C 119.6842,124.4456 120.773,125.2689 122.3048,125.971 C 123.3316,126.4417 123.1287,126.0451 124.558,126.986 L 124.558,126.986 z "
       transform="matrix(11.938829,0,0,11.936395,-1000.296,-1367.517)"
       style="fill:#009847;fill-rule:evenodd"
       id="_132164784" />
    <path
       d="M 121.168,125.964 C 122.7372,127.0249 123.9747,127.5108 124.9159,128.2278 C 125.6736,128.977 125.9454,129.8935 126.3641,131.8204 C 124.4581,130.0013 122.5713,128.1349 121.168,125.964 L 121.168,125.964 z "
       transform="matrix(11.938829,0,0,11.936395,-1000.296,-1367.517)"
       style="fill:#009847;fill-rule:evenodd"
       id="_132165536" />
    <path
       d="M 125.419,126.233 C 126.2323,127.8799 126.7875,129.7897 126.9313,131.8742 C 126.9895,132.718 127.4499,133.4296 127.7328,134.0892 C 128.0587,132.0029 128.1129,130.5572 127.8338,129.2939 C 127.5791,128.1416 126.5369,127.5819 125.419,126.233 z "
       transform="matrix(11.938829,0,0,11.936395,-1000.296,-1367.517)"
       style="fill:#009847;fill-rule:evenodd"
       id="_132166288" />
    <path
       d="M 129.132,144.582 C 128.306,145.3945 128.073,146.2662 128.1096,147.1649 C 128.9526,146.3577 129.6637,145.6768 130.5068,144.8696 C 130.7656,143.9269 130.9689,142.7415 131.092,141.7418 C 130.962,141.2714 130.9732,140.8013 130.6353,140.6091 C 130.5616,140.5672 130.4593,140.5217 130.4009,140.5806 C 130.3027,140.6796 130.0821,140.7093 129.9347,140.7303 C 130.4822,139.8735 130.5949,138.9754 130.5686,138.0708 C 130.5453,137.2661 130.3475,136.2353 130.175,135.4488 C 129.9349,134.3551 129.4974,133.3427 128.9705,132.3671 C 128.9282,133.6931 128.7963,135.1661 128.4862,136.8872 C 127.9493,133.9883 126.1981,132.2679 124.2352,130.7528 C 124.1849,132.1334 124.6028,133.8866 127.4815,137.1207 C 127.338,137.3001 127.3383,137.2997 127.1948,137.4791 C 126.2788,136.6054 125.4966,135.6044 124.9441,134.7521 C 124.9829,136.6454 125.3679,138.6066 126.2467,140.2349 C 126.127,140.3569 126.0207,140.6045 125.8766,140.7641 C 125.7775,140.8738 125.6932,140.9202 125.5432,140.9254 C 125.4081,140.93 125.349,140.9191 125.212,140.9226 C 125.1812,141.8952 125.2593,143.2244 125.0781,143.8303 C 125.0031,145.1974 124.922,146.5591 124.881,147.9182 C 125.2911,147.1917 125.7849,146.4962 126.1754,145.7611 C 126.2993,145.2107 126.2537,144.643 126.151,144.1217 C 125.3638,143.7623 125.7327,142.9884 125.7497,142.1857 C 125.7205,141.4832 125.3742,141.6034 125.1813,141.393 C 125.6533,141.3284 125.8615,141.4943 126,141.6337 C 126.2126,141.6019 126.0839,141.0235 126.3338,140.8691 C 126.5311,140.896 126.5653,141.5271 126.7368,141.6109 C 126.9805,141.5395 127.4178,141.0884 127.6151,141.1153 C 127.3782,140.7355 127.2811,140.405 127.403,139.9646 C 127.4684,139.7286 127.4961,139.4778 127.4153,139.1957 C 127.2568,138.6426 126.8897,138.6498 126.5938,138.2504 C 127.1219,138.1821 127.6503,138.7138 127.6667,138.5791 C 127.6534,138.2333 127.6915,137.8501 127.7867,137.6405 C 127.9925,137.8104 128.0366,138.0125 128.1695,138.4455 C 128.2061,138.5128 128.2695,138.5484 128.322,138.5696 C 128.4019,138.5562 128.4898,138.5062 128.5086,138.4506 C 128.6524,138.2076 129.0687,137.99 129.3382,138.3561 C 128.9596,138.3232 128.7792,138.4203 128.7478,138.8737 C 128.8006,139.5858 129.1012,140.888 128.2346,141.2685 C 128.5741,141.2979 128.7743,141.4102 129.1007,141.7474 C 129.4628,141.5366 129.4827,141.2637 129.5724,141.0541 C 129.6174,141.0516 129.6537,141.0335 129.6844,141.0306 C 129.7391,141.0697 129.7689,141.0809 129.7764,141.135 C 129.698,141.3663 129.6671,141.6249 129.769,141.8689 C 130.1343,141.7256 130.459,141.6882 130.7654,141.6988 C 130.4833,141.9543 130.2105,142.1904 129.9746,142.5177 C 129.6972,142.9029 129.865,143.3545 129.8202,143.8088 C 129.7684,144.3346 129.4553,144.4102 129.132,144.582 L 129.132,144.582 z "
       transform="matrix(11.938829,0,0,11.936395,-1000.296,-1367.517)"
       style="fill:#009847;fill-rule:evenodd"
       id="_132164640" />
    <path
       d="M 126.485,146.877 C 127.4458,146.2256 128.2601,145.3936 128.7909,144.4794 C 128.6076,144.2263 128.4563,144.1885 128.3999,143.8367 C 128.3276,143.385 128.3861,143.074 128.4699,142.7011 C 128.5237,142.4616 128.5905,142.2636 128.5379,142.0201 C 128.4433,141.5829 128.2205,141.357 128.0094,141.2938 C 127.9701,141.2813 127.8872,141.2162 127.8482,141.2178 C 127.5857,141.2285 127.3678,141.5773 127.2503,141.8559 C 127.1948,141.9875 127.1894,142.0754 127.1842,142.217 C 127.1667,142.695 127.1203,143.2136 126.857,143.6907 C 126.7603,143.8661 126.6044,144.0088 126.3937,144.1337 C 126.3989,145.0273 126.4798,145.9833 126.485,146.877 z "
       transform="matrix(11.938829,0,0,11.936395,-1000.296,-1367.517)"
       style="fill:#009847;fill-rule:evenodd"
       id="_132167584" />
    <path
       d="M 127.809,146.493 C 127.1673,148.3834 125.7455,149.9616 123.8977,151.5003 C 124.0623,151.0476 124.1706,150.6501 124.2075,150.3222 C 124.2226,150.1879 124.2146,150.0637 124.2486,149.9328 C 124.3583,149.5111 124.4747,149.1389 124.6068,148.824 C 124.9432,148.4284 125.2751,148.0099 125.7273,147.7644 C 126.6222,147.2787 127.2512,146.7966 127.809,146.493 z "
       transform="matrix(11.938829,0,0,11.936395,-1000.296,-1367.517)"
       style="fill:#009847;fill-rule:evenodd"
       id="_132170144" />
    <path
       d="M 129.669,145.999 C 129.7754,147.129 128.562,148.6454 126.6081,150.3784 C 126.6163,149.6093 126.9539,148.8872 127.6205,148.2123 C 128.4489,147.4612 129.1857,146.7186 129.669,145.999 z "
       transform="matrix(11.938829,0,0,11.936395,-1000.296,-1367.517)"
       style="fill:#009847;fill-rule:evenodd"
       id="_132174128" />
    <path
       d="M 124.112,146.681 C 123.536,147.1981 122.9975,147.9013 122.9116,148.7005 C 122.7297,150.3919 122.4165,151.0436 122.4638,152.4732 C 123.0666,151.7834 123.5815,150.9241 123.7823,149.4594 C 123.8922,148.5332 124.0021,147.6071 124.112,146.681 L 124.112,146.681 z "
       transform="matrix(11.938829,0,0,11.936395,-1000.296,-1367.517)"
       style="fill:#009847;fill-rule:evenodd"
       id="_132174912" />
    <path
       d="M 122.111,149.907 C 120.7648,151.279 120.0977,153.1233 120.1097,155.4402 C 120.353,155.1576 120.5963,154.8751 120.8396,154.5926 C 120.9149,154.7361 121.0123,154.831 121.1221,154.8987 C 121.4171,154.3308 121.8306,153.8945 122.4171,153.6507 C 123.6022,153.2662 124.7873,152.8816 125.9725,152.497 C 126.6321,151.9675 127.4811,150.8949 127.8333,150.144 C 127.2645,150.5922 126.582,150.9928 125.6652,151.3334 C 124.9838,151.5866 124.3277,151.9642 123.5944,152.2616 C 122.6371,152.812 121.8495,153.515 121.2163,154.3571 C 121.3258,153.8125 121.5693,153.2781 121.5448,152.7231 C 121.4983,151.6667 121.7394,150.7542 122.111,149.907 z "
       transform="matrix(11.938829,0,0,11.936395,-1000.296,-1367.517)"
       style="fill:#009847;fill-rule:evenodd"
       id="_132173896" />
    <path
       d="M 119.921,155.741 C 119.3239,156.2101 118.3803,156.8041 118.1112,157.523 C 118.3676,157.4114 118.6066,157.3463 118.8073,157.3838 C 119.6836,156.6357 119.7966,156.1916 119.921,155.741 L 119.921,155.741 z "
       transform="matrix(11.938829,0,0,11.936395,-1000.296,-1367.517)"
       style="fill:#009847;fill-rule:evenodd"
       id="_132177432" />
    <path
       d="M 91.8165,153.679 C 92.719,154.6794 93.7029,155.6549 94.799,156.5957 C 95.4568,157.1602 96.3586,157.6873 97.2391,158.0993 C 97.637,157.9405 97.8593,157.9643 98.247,157.7104 C 98.3502,157.2314 98.2698,156.627 98.2282,156.1384 C 97.5516,155.6164 96.8751,155.0945 96.1986,154.5726 C 96.2046,153.8971 96.2106,153.2215 96.2167,152.546 C 92.1045,148.2465 90.0983,143.6444 90.6026,138.7717 C 90.646,137.3306 90.8963,135.8838 91.3665,134.4318 C 91.8983,132.7895 92.4934,131.2302 93.5683,129.5748 C 94.3807,128.743 95.2888,127.7822 95.8242,126.8786 C 96.182,126.1879 96.0812,125.4736 95.8236,124.9195 C 96.9847,124.3206 97.7403,123.5253 98.0426,122.422 C 98.1517,122.0239 98.1014,121.9925 97.7808,121.8569 C 96.8175,121.4496 96.5515,121.1359 95.7523,121.6888 C 94.1876,122.8004 92.9159,124.135 91.7899,125.5194 C 91.4421,125.5767 91.0281,125.6582 90.6192,125.7547 C 89.4771,126.0241 88.8417,126.2749 88.2183,127.2647 C 87.9812,127.6412 87.7703,128.0405 87.581,128.4512 C 86.8567,130.023 86.0883,131.7491 85.5061,133.5615 C 84.2695,137.9242 84.1818,141.9386 85.6718,146.2386 C 86.5779,148.8537 87.7365,151.2861 89.3816,153.4694 C 90.5278,153.7543 91.3394,153.8242 91.8165,153.679 L 91.8165,153.679 z "
       transform="matrix(11.938829,0,0,11.936395,-1000.296,-1367.517)"
       style="fill:#ffffff;fill-rule:evenodd"
       id="_132177200" />
    <path
       d="M 91.1965,126.986 C 91.4719,126.3086 91.8175,125.6341 92.4574,125.216 C 94.4971,123.8831 95.246,124.2261 97.0207,122.6207 C 96.0703,124.4456 94.9816,125.2689 93.4497,125.971 C 92.4229,126.4417 92.6258,126.0451 91.1965,126.986 L 91.1965,126.986 z "
       transform="matrix(11.938829,0,0,11.936395,-1000.296,-1367.517)"
       style="fill:#009847;fill-rule:evenodd"
       id="_132178424" />
    <path
       d="M 94.5865,125.964 C 93.0173,127.0249 91.7798,127.5108 90.8386,128.2278 C 90.0809,128.977 89.8091,129.8935 89.3904,131.8204 C 91.2964,130.0013 93.1833,128.1349 94.5865,125.964 L 94.5865,125.964 z "
       transform="matrix(11.938829,0,0,11.936395,-1000.296,-1367.517)"
       style="fill:#009847;fill-rule:evenodd"
       id="_132180816" />
    <path
       d="M 90.3356,126.233 C 89.5222,127.8799 88.967,129.7897 88.8232,131.8742 C 88.765,132.718 88.3046,133.4296 88.0217,134.0892 C 87.6958,132.0029 87.6416,130.5572 87.9207,129.2939 C 88.1754,128.1416 89.2176,127.5819 90.3356,126.233 z "
       transform="matrix(11.938829,0,0,11.936395,-1000.296,-1367.517)"
       style="fill:#009847;fill-rule:evenodd"
       id="_132181744" />
    <path
       d="M 86.6507,144.554 C 87.4766,145.3665 87.6816,146.2662 87.6451,147.1649 C 86.802,146.3577 86.0909,145.6768 85.2478,144.8696 C 84.989,143.9269 84.7857,142.7415 84.6626,141.7418 C 84.7926,141.2714 84.7814,140.8013 85.1194,140.6091 C 85.1931,140.5672 85.2953,140.5217 85.3538,140.5806 C 85.4519,140.6796 85.6725,140.7093 85.8199,140.7303 C 85.2724,139.8735 85.1597,138.9754 85.186,138.0708 C 85.2093,137.2661 85.4071,136.2353 85.5797,135.4488 C 85.8197,134.3551 86.2572,133.3427 86.7841,132.3671 C 86.8264,133.6931 86.9583,135.1661 87.2684,136.8872 C 87.8054,133.9883 89.5565,132.2679 91.5194,130.7528 C 91.5697,132.1334 91.1518,133.8866 88.2731,137.1207 C 88.4166,137.3001 88.4163,137.2997 88.5598,137.4791 C 89.4758,136.6054 90.258,135.6044 90.8105,134.7521 C 90.7717,136.6454 90.3867,138.6066 89.5079,140.2349 C 89.6276,140.3569 89.7339,140.6045 89.878,140.7641 C 89.9771,140.8738 90.0614,140.9202 90.2114,140.9254 C 90.3465,140.93 90.4056,140.9191 90.5426,140.9226 C 90.5734,141.8952 90.4953,143.2244 90.6765,143.8303 C 90.7516,145.1974 90.8327,146.5591 90.8737,147.9182 C 90.4635,147.1917 89.9697,146.4962 89.5792,145.7611 C 89.4553,145.2107 89.501,144.643 89.6036,144.1217 C 90.3908,143.7623 90.0219,142.9884 90.0049,142.1857 C 90.0341,141.4832 90.3804,141.6034 90.5733,141.393 C 90.1013,141.3284 89.8436,141.6241 89.7051,141.7634 C 89.4925,141.7316 89.6378,141.1058 89.4208,140.8691 C 89.2564,140.9536 89.238,141.6208 89.0665,141.7047 C 88.8228,141.6332 88.5179,141.1707 88.1395,141.1153 C 88.3764,140.7355 88.4735,140.405 88.3516,139.9646 C 88.2863,139.7286 88.2585,139.4778 88.3393,139.1957 C 88.4037,138.971 88.5026,138.8108 88.617,138.7062 C 88.7844,138.5534 88.9585,138.4564 89.1608,138.2504 C 88.6327,138.1821 88.031,138.7368 88.0145,138.6021 C 88.0278,138.2564 88.0631,137.8501 87.9679,137.6405 C 87.7702,137.8038 87.7217,137.9967 87.6003,138.3958 C 87.583,138.453 87.5043,138.6037 87.4458,138.6062 C 87.3582,138.61 87.2621,138.4629 87.246,138.4506 C 87.1022,138.2076 86.6859,137.99 86.4165,138.3561 C 86.7536,138.3268 86.9335,138.4006 86.9911,138.7374 C 87.0054,138.8214 87.0059,138.8935 86.9979,138.9776 C 86.9285,139.7059 86.6941,140.9058 87.52,141.2685 C 87.1805,141.2979 86.9803,141.4102 86.6539,141.7474 C 86.2918,141.5366 86.2685,141.2732 86.1789,141.0636 C 86.1357,141.0548 86.1102,141.0369 86.0805,141.0342 C 86.0127,141.0804 86.0023,141.0794 85.9809,141.1477 C 86.053,141.3791 86.0854,141.6294 85.9856,141.8689 C 85.6203,141.7256 85.2956,141.6882 84.9893,141.6988 C 85.2713,141.9543 85.5441,142.1904 85.78,142.5177 C 86.0574,142.9029 85.8897,143.3545 85.9344,143.8088 C 85.9862,144.3345 86.3273,144.3822 86.6507,144.554 L 86.6507,144.554 z "
       transform="matrix(11.938829,0,0,11.936395,-1000.296,-1367.517)"
       style="fill:#009847;fill-rule:evenodd"
       id="_132178400" />
    <path
       d="M 89.2698,146.877 C 88.309,146.2256 87.4948,145.3936 86.9639,144.4794 C 87.1472,144.2263 87.2986,144.1885 87.3549,143.8367 C 87.4272,143.385 87.3687,143.074 87.2849,142.7011 C 87.2311,142.4616 87.1643,142.2636 87.2169,142.0201 C 87.3115,141.5829 87.5343,141.357 87.7454,141.2938 C 87.7847,141.2813 87.8676,141.2162 87.9066,141.2178 C 88.1691,141.2285 88.387,141.5773 88.5046,141.8559 C 88.56,141.9875 88.5654,142.0754 88.5706,142.217 C 88.5881,142.695 88.6345,143.2136 88.8978,143.6907 C 88.9946,143.8661 89.1504,144.0088 89.3611,144.1337 C 89.3559,145.0273 89.275,145.9833 89.2698,146.877 L 89.2698,146.877 z "
       transform="matrix(11.938829,0,0,11.936395,-1000.296,-1367.517)"
       style="fill:#009847;fill-rule:evenodd"
       id="_132186072" />
    <path
       d="M 87.9462,146.493 C 88.5879,148.3834 90.0097,149.9616 91.8575,151.5003 C 91.6929,151.0476 91.5847,150.6501 91.5477,150.3222 C 91.5326,150.1879 91.5406,150.0637 91.5066,149.9328 C 91.3969,149.5111 91.2805,149.1389 91.1484,148.824 C 90.812,148.4284 90.4802,148.0099 90.0279,147.7644 C 89.133,147.2787 88.5041,146.7966 87.9462,146.493 z "
       transform="matrix(11.938829,0,0,11.936395,-1000.296,-1367.517)"
       style="fill:#009847;fill-rule:evenodd"
       id="_131813232" />
    <path
       d="M 86.0861,145.999 C 85.9797,147.129 87.1931,148.6454 89.147,150.3784 C 89.1388,149.6093 88.8013,148.8872 88.1346,148.2123 C 87.3062,147.4612 86.5694,146.7186 86.0861,145.999 z "
       transform="matrix(11.938829,0,0,11.936395,-1000.296,-1367.517)"
       style="fill:#009847;fill-rule:evenodd"
       id="_132183712" />
    <path
       d="M 91.6428,146.681 C 92.2188,147.1981 92.7573,147.9013 92.8432,148.7005 C 93.0251,150.3919 93.3383,151.0436 93.291,152.4732 C 92.6882,151.7834 92.1733,150.9241 91.9725,149.4594 C 91.8626,148.5332 91.7527,147.6071 91.6428,146.681 L 91.6428,146.681 z "
       transform="matrix(11.938829,0,0,11.936395,-1000.296,-1367.517)"
       style="fill:#009847;fill-rule:evenodd"
       id="_132184704" />
    <path
       d="M 93.6442,149.907 C 94.9904,151.279 95.6575,153.1233 95.6456,155.4402 C 95.4022,155.1576 95.1589,154.8751 94.9156,154.5926 C 94.8403,154.7361 94.7429,154.831 94.6331,154.8987 C 94.3381,154.3308 93.9246,153.8945 93.3381,153.6507 C 92.153,153.2662 90.9679,152.8816 89.7828,152.497 C 89.1231,151.9675 88.2741,150.8949 87.9219,150.144 C 88.4907,150.5922 89.1732,150.9928 90.09,151.3334 C 90.7715,151.5866 91.4275,151.9642 92.1608,152.2616 C 93.1181,152.812 93.9057,153.515 94.5389,154.3571 C 94.4294,153.8125 94.186,153.2781 94.2104,152.7231 C 94.2569,151.6667 94.0158,150.7542 93.6442,149.907 z "
       transform="matrix(11.938829,0,0,11.936395,-1000.296,-1367.517)"
       style="fill:#009847;fill-rule:evenodd"
       id="_132185640" />
    <path
       d="M 95.8342,155.741 C 96.4313,156.2101 97.3749,156.8041 97.644,157.523 C 97.3876,157.4114 97.1486,157.3463 96.948,157.3838 C 96.0716,156.6357 95.9586,156.1916 95.8342,155.741 L 95.8342,155.741 z "
       transform="matrix(11.938829,0,0,11.936395,-1000.296,-1367.517)"
       style="fill:#009847;fill-rule:evenodd"
       id="_131817120" />
  </g>
</svg>
