<svg width="44" height="44" viewBox="0 0 44 44" fill="none" xmlns="http://www.w3.org/2000/svg">
<circle cx="22" cy="22" r="22" fill="#FEF7D9"/>
<g clip-path="url(#clip0)">
<path d="M27.3469 31.6247V29.4858C27.3469 28.3512 26.8963 27.2632 26.094 26.4609C25.2918 25.6587 24.2037 25.208 23.0692 25.208H14.5136C13.3791 25.208 12.291 25.6587 11.4888 26.4609C10.6865 27.2632 10.2358 28.3512 10.2358 29.4858V31.6247" stroke="#25282B" stroke-width="2" stroke-linecap="round" stroke-linejoin="round"/>
<path d="M18.7915 20.9306C21.154 20.9306 23.0692 19.0153 23.0692 16.6528C23.0692 14.2902 21.154 12.375 18.7915 12.375C16.4289 12.375 14.5137 14.2902 14.5137 16.6528C14.5137 19.0153 16.4289 20.9306 18.7915 20.9306Z" stroke="#25282B" stroke-width="2" stroke-linecap="round" stroke-linejoin="round"/>
<path d="M33.7635 31.6248V29.4859C33.7628 28.5381 33.4473 27.6174 32.8666 26.8683C32.2859 26.1192 31.4729 25.5841 30.5552 25.3472" stroke="#25282B" stroke-width="2" stroke-linecap="round" stroke-linejoin="round"/>
<path d="M26.2778 12.5137C27.198 12.7493 28.0136 13.2844 28.596 14.0348C29.1784 14.7851 29.4946 15.7079 29.4946 16.6578C29.4946 17.6076 29.1784 18.5305 28.596 19.2808C28.0136 20.0311 27.198 20.5663 26.2778 20.8019" stroke="#25282B" stroke-width="2" stroke-linecap="round" stroke-linejoin="round"/>
</g>
<defs>
<clipPath id="clip0">
<rect width="25.6667" height="25.6667" fill="white" transform="translate(9.1665 9.1665)"/>
</clipPath>
</defs>
</svg>
