<svg width="245" height="533" viewBox="0 0 245 533" fill="none" xmlns="http://www.w3.org/2000/svg">
<g opacity="0.7">
<path opacity="0.4" d="M-42.2623 490.47L-84.0298 418.127L-42.2624 345.784L41.2726 345.784L83.0401 418.127L41.2726 490.47L-42.2623 490.47Z" fill="#FCE480"/>
<path opacity="0.8" d="M-41.4984 338.462L-83.2659 266.119L-41.4984 193.775L42.0365 193.775L83.804 266.119L42.0365 338.462L-41.4984 338.462Z" fill="#FCE480"/>
<path opacity="0.7" d="M-41.4984 186.454L-83.2659 114.111L-41.4984 41.7674L42.0365 41.7674L83.804 114.111L42.0365 186.454L-41.4984 186.454Z" fill="#FCE480"/>
<path opacity="0.5" d="M89.1217 414.848L47.3542 342.505L89.1217 270.161L172.657 270.161L214.424 342.505L172.657 414.848L89.1217 414.848Z" fill="#FCE480"/>
<path opacity="0.6" d="M89.1217 262.84L47.3542 190.497L89.1217 118.153L172.657 118.153L214.424 190.497L172.657 262.84L89.1217 262.84Z" fill="#FCE480"/>
</g>
</svg>
