<svg width="44" height="44" viewBox="0 0 44 44" fill="none" xmlns="http://www.w3.org/2000/svg">
<circle cx="22" cy="22" r="22" fill="#FEF7D9"/>
<path d="M22 36.8494L21.4856 36.105C21.0988 35.5444 12 22.3119 12 17C12 11.4863 16.4863 7 22 7C27.5138 7 32 11.4863 32 17C32 22.3119 22.9012 35.5444 22.5144 36.105L22 36.8494ZM22 8.25C17.175 8.25 13.25 12.175 13.25 17C13.25 21.2419 20.0531 31.7219 22 34.6338C23.9469 31.7219 30.75 21.2419 30.75 17C30.75 12.175 26.825 8.25 22 8.25Z" fill="black"/>
<path d="M22 21.375C19.5881 21.375 17.625 19.4125 17.625 17C17.625 14.5875 19.5881 12.625 22 12.625C24.4119 12.625 26.375 14.5875 26.375 17C26.375 19.4125 24.4119 21.375 22 21.375ZM22 13.875C20.2769 13.875 18.875 15.2769 18.875 17C18.875 18.7231 20.2769 20.125 22 20.125C23.7231 20.125 25.125 18.7231 25.125 17C25.125 15.2769 23.7231 13.875 22 13.875Z" fill="black"/>
</svg>
