<svg width="22" height="22" viewBox="0 0 22 22" fill="none" xmlns="http://www.w3.org/2000/svg">
<path fill-rule="evenodd" clip-rule="evenodd" d="M11 0C4.92487 0 0 4.92487 0 11C0 17.0751 4.92487 22 11 22C17.0751 22 22 17.0751 22 11C22 4.92487 17.0751 0 11 0ZM11.8951 14.4731C11.7867 14.5875 11.5749 14.6106 11.5749 14.6106H10.8736C10.8736 14.6106 9.32645 14.7018 7.96349 13.3093C6.47714 11.7901 5.16468 8.77575 5.16468 8.77575C5.16468 8.77575 5.08893 8.57803 5.171 8.48283C5.26339 8.37524 5.51532 8.36848 5.51532 8.36848L7.19162 8.35777C7.19162 8.35777 7.34944 8.38312 7.46249 8.4648C7.55603 8.5324 7.60826 8.65802 7.60826 8.65802C7.60826 8.65802 7.87913 9.33062 8.2378 9.939C8.93851 11.127 9.26447 11.3867 9.50205 11.2594C9.84868 11.0741 9.7448 9.58017 9.7448 9.58017C9.7448 9.58017 9.75112 9.03826 9.57034 8.7966C9.43032 8.60958 9.16634 8.55493 9.04984 8.53972C8.95515 8.52733 9.1101 8.31215 9.31095 8.21582C9.61281 8.07105 10.1454 8.0626 10.7749 8.06879C11.2656 8.07386 11.4068 8.10372 11.5984 8.14935C12.0433 8.25472 12.0294 8.59242 11.9994 9.32124C11.9905 9.53921 11.9801 9.79216 11.9801 10.0843C11.9801 10.15 11.9781 10.22 11.9761 10.292C11.9657 10.6654 11.9538 11.0929 12.2044 11.2521C12.333 11.3332 12.6469 11.2639 13.4325 9.95478C13.805 9.334 14.0839 8.60451 14.0839 8.60451C14.0839 8.60451 14.1453 8.47438 14.24 8.41861C14.337 8.36172 14.4678 8.37918 14.4678 8.37918L16.2319 8.36848C16.2319 8.36848 16.7622 8.30595 16.8477 8.54142C16.9378 8.78758 16.6497 9.36329 15.9289 10.3063C15.2452 11.201 14.9124 11.5305 14.943 11.8218C14.9653 12.0347 15.1816 12.2273 15.5966 12.6052C16.4631 13.3948 16.6953 13.8102 16.7511 13.9101C16.7557 13.9183 16.7591 13.9244 16.7616 13.9284C17.1501 14.561 16.3306 14.6106 16.3306 14.6106L14.7634 14.632C14.7634 14.632 14.4271 14.6973 13.984 14.3988C13.752 14.2425 13.5252 13.9873 13.3092 13.7442C12.9793 13.373 12.6746 13.03 12.4145 13.111C11.9778 13.2474 11.991 14.1706 11.991 14.1706C11.991 14.1706 11.9944 14.3684 11.8951 14.4731Z" fill="#1F1F1F"/>
</svg>
