<svg width="579" height="628" viewBox="0 0 579 628" fill="none" xmlns="http://www.w3.org/2000/svg">
<g opacity="0.7">
<path d="M492.897 139.363L542.162 224.693L492.897 310.022L394.367 310.022L345.101 224.693L394.366 139.363L492.897 139.363Z" fill="#FCE480"/>
<path opacity="0.4" d="M338.829 49.265L388.095 134.595L338.829 219.924L240.299 219.924L191.034 134.595L240.299 49.265L338.829 49.265Z" fill="#FCE480"/>
<path opacity="0.8" d="M337.928 228.56L387.194 313.89L337.928 399.219L239.398 399.219L190.133 313.89L239.398 228.56L337.928 228.56Z" fill="#FCE480"/>
<path opacity="0.7" d="M337.928 407.855L387.194 493.184L337.928 578.514L239.398 578.514L190.133 493.185L239.398 407.855L337.928 407.855Z" fill="#FCE480"/>
<path opacity="0.5" d="M183.861 138.462L233.126 223.792L183.861 309.121L85.3306 309.121L36.0655 223.792L85.3306 138.462L183.861 138.462Z" fill="#FCE480"/>
<path opacity="0.6" d="M183.861 317.757L233.126 403.087L183.861 488.416L85.3306 488.416L36.0655 403.087L85.3306 317.757L183.861 317.757Z" fill="#FCE480"/>
<path d="M492.897 318.658L542.162 403.988L492.897 489.317L394.367 489.317L345.102 403.988L394.367 318.658L492.897 318.658Z" fill="#FCE480"/>
</g>
</svg>
