<svg width="30" height="33" viewBox="0 0 30 33" fill="none" xmlns="http://www.w3.org/2000/svg">
<path d="M0.000814623 28.3269L0.114062 32.5121C0.117622 32.6427 0.172073 32.7668 0.26583 32.8579C0.359586 32.949 0.485245 33 0.616068 33H29.3843C29.5152 33 29.6408 32.949 29.7346 32.8579C29.8283 32.7668 29.8828 32.6427 29.8863 32.5121L29.9991 28.3389C30.0011 28.2949 30.1633 23.9138 24.9751 22.624C22.5987 22.134 20.1807 21.8727 17.7543 21.8438C20.397 20.2957 22.2464 16.8168 22.2464 12.7753C22.2464 12.6238 22.2377 12.4755 22.2303 12.3267C22.6131 11.8415 23.5957 10.1529 23.0838 6.02023C22.9136 5.05516 22.1722 3.36215 20.5447 3.25732C20.4183 2.70935 20.1369 2.2092 19.734 1.81641C19.6766 1.76598 13.9687 -3.17392 7.33138 3.45505C7.27396 3.51228 7.23131 3.58256 7.20706 3.65987C7.18282 3.73718 7.1777 3.8192 7.19216 3.89892C7.20663 3.97863 7.24023 4.05365 7.29009 4.11755C7.33996 4.18145 7.40459 4.23232 7.47846 4.2658L7.80987 4.4161C7.00097 5.12379 5.96166 6.61311 6.40776 9.43458L6.93035 12.3067C6.95557 12.4353 7.03069 12.5488 7.13932 12.6223C7.13859 12.6735 7.13527 12.7238 7.13527 12.7753C7.13527 16.8328 8.99883 20.3245 11.6583 21.8633C9.42838 21.9103 7.20775 22.1649 5.02526 22.624C-0.162924 23.9138 -0.000656254 28.2948 0.000814623 28.3269ZM14.8144 22.9802L16.3817 24.0051L15.8057 25.6021H13.8236L13.2476 24.0051L14.8144 22.9802ZM13.9322 26.6048H15.7025L16.1473 31.9974H13.4874L13.9322 26.6048ZM28.9956 28.3L28.8956 31.9974H17.1551L16.6732 26.1544L17.4607 23.9726C17.4991 23.8666 17.5005 23.7507 17.4648 23.6438C17.429 23.5368 17.3581 23.4451 17.2636 23.3834L16.4038 22.821C18.436 22.8449 22.2403 22.977 24.7329 23.5968C29.0995 24.6824 29.0024 28.1433 28.9956 28.3L28.9956 28.3ZM22.0915 6.16856C22.4832 9.33471 21.916 10.8752 21.5969 11.4602C20.0018 10.4601 19.7218 8.18903 19.715 6.75968C19.7301 6.74163 19.7435 6.7259 19.7629 6.70123C19.8637 6.54753 19.9553 6.38806 20.0374 6.22364C20.3547 5.61846 20.5512 4.95753 20.6162 4.27754C21.7611 4.48746 22.081 6.1153 22.0915 6.16856ZM9.02614 4.79579C9.11693 4.75881 9.19489 4.69609 9.25039 4.61536C9.30589 4.53463 9.33649 4.43944 9.33842 4.34154C9.34035 4.24363 9.31352 4.14731 9.26125 4.06446C9.20897 3.98162 9.13354 3.91588 9.04427 3.87537L8.56972 3.65995C14.28 -1.53748 18.8672 2.38972 19.0447 2.54516C19.3866 2.87834 19.5916 3.32693 19.6197 3.80314V3.80339C19.6337 4.4885 19.4695 5.1655 19.1432 5.76833C19.0388 5.97298 18.9535 6.10615 18.956 6.10615L18.9565 6.10565C18.9359 6.13037 18.9143 6.15338 18.8927 6.17664L18.8378 6.2371C15.8665 9.57582 9.59974 7.28065 9.536 7.25691C9.46363 7.22984 9.38599 7.2198 9.3091 7.22758C9.23222 7.23536 9.15817 7.26075 9.09272 7.30177C9.02726 7.34279 8.97216 7.39834 8.93171 7.46409C8.89125 7.52985 8.86653 7.60403 8.85947 7.68089C8.64229 10.0664 8.1393 11.0451 7.79371 11.4431L7.3976 9.26689C6.84506 5.7698 8.94034 4.83249 9.02614 4.79579ZM8.13929 12.7753C8.13929 12.6715 8.14446 12.5695 8.14756 12.4666C8.78104 12.0365 9.47633 10.9603 9.79238 8.39789C11.4051 8.88732 15.8053 9.9052 18.7494 7.66449C18.8862 9.30567 19.4407 11.3788 21.2285 12.399C21.2347 12.5238 21.2424 12.6482 21.2424 12.7753C21.2424 17.6975 18.3034 21.7021 14.6909 21.7021C11.0783 21.7021 8.13929 17.6975 8.13929 12.7753ZM13.2177 22.826L12.3657 23.3833C12.2712 23.445 12.2003 23.5368 12.1645 23.6437C12.1288 23.7507 12.1302 23.8665 12.1686 23.9725L12.9605 26.1665L12.4796 31.9973H1.10484L1.00433 28.288C1.00237 28.2523 0.872458 24.6895 5.26746 23.5968C7.6113 23.0138 11.1179 22.8618 13.2177 22.826L13.2177 22.826Z" fill="black"/>
</svg>
