<svg width="252" height="274" viewBox="0 0 252 274" fill="none" xmlns="http://www.w3.org/2000/svg">
<g opacity="0.7">
<path d="M37.188 212.86L15.7175 175.672L37.188 138.484L80.1291 138.484L101.6 175.672L80.1291 212.86L37.188 212.86Z" fill="#FCE480"/>
<path opacity="0.4" d="M104.333 252.126L82.8625 214.938L104.333 177.75L147.274 177.75L168.745 214.938L147.274 252.126L104.333 252.126Z" fill="#FCE480"/>
<path opacity="0.8" d="M104.726 173.986L83.2552 136.798L104.726 99.6103L147.667 99.6103L169.137 136.798L147.667 173.986L104.726 173.986Z" fill="#FCE480"/>
<path opacity="0.7" d="M104.726 95.8466L83.2552 58.6586L104.726 21.4705L147.667 21.4705L169.137 58.6586L147.667 95.8466L104.726 95.8466Z" fill="#FCE480"/>
<path opacity="0.5" d="M171.871 213.252L150.4 176.064L171.871 138.876L214.812 138.876L236.282 176.064L214.812 213.252L171.871 213.252Z" fill="#FCE480"/>
<path opacity="0.6" d="M171.871 135.113L150.4 97.9248L171.871 60.7367L214.812 60.7367L236.282 97.9248L214.812 135.113L171.871 135.113Z" fill="#FCE480"/>
<path d="M37.188 134.72L15.7175 97.5321L37.188 60.344L80.1291 60.344L101.6 97.5321L80.1291 134.72L37.188 134.72Z" fill="#FCE480"/>
</g>
</svg>
