<svg width="27" height="27" viewBox="0 0 27 27" fill="none" xmlns="http://www.w3.org/2000/svg">
<path d="M25.4499 22.5836H24.471V20.7228C24.471 20.5603 24.4073 20.4044 24.2938 20.2895C24.1804 20.1745 24.0265 20.11 23.866 20.11H22.6121V8.68889H25.4609C25.5826 8.68707 25.7003 8.64439 25.7955 8.56754C25.8907 8.4907 25.9581 8.38402 25.987 8.26424C26.0159 8.14446 26.0048 8.01834 25.9554 7.90564C25.906 7.79294 25.821 7.70004 25.7139 7.6415L13.2628 0.955994C13.1833 0.913073 13.0945 0.890625 13.0043 0.890625C12.9142 0.890625 12.8254 0.913073 12.7459 0.955994L0.305781 7.65264C0.203873 7.71358 0.124086 7.80619 0.0782694 7.91672C0.032453 8.02725 0.0230518 8.1498 0.051462 8.26617C0.0798723 8.38254 0.144578 8.48653 0.23597 8.56269C0.327362 8.63884 0.440564 8.6831 0.558763 8.68889H3.40755V20.11H2.14265C1.9822 20.11 1.82833 20.1745 1.71488 20.2895C1.60143 20.4044 1.53769 20.5603 1.53769 20.7228V22.5836H0.558763C0.483678 22.5835 0.409362 22.5989 0.340392 22.629C0.271422 22.659 0.209259 22.7031 0.157735 22.7584C0.10621 22.8137 0.0664154 22.8792 0.0408017 22.9507C0.015188 23.0222 0.00429823 23.0982 0.00880341 23.1741V25.5921C0.00880341 25.7398 0.0667454 25.8815 0.169883 25.986C0.27302 26.0905 0.412904 26.1492 0.558763 26.1492H25.4499C25.5958 26.1492 25.7357 26.0905 25.8388 25.986C25.9419 25.8815 25.9999 25.7398 25.9999 25.5921V23.1741C26.0044 23.0982 25.9935 23.0222 25.9679 22.9507C25.9423 22.8792 25.9025 22.8137 25.8509 22.7584C25.7994 22.7031 25.7373 22.659 25.6683 22.629C25.5993 22.5989 25.525 22.5835 25.4499 22.5836ZM21.5012 20.1211H20.6323V8.68889H21.5012V20.1211ZM8.65416 8.68889V20.11H6.45433V8.68889H8.65416ZM9.75408 8.68889H10.623V20.11H9.75408V8.68889ZM11.7229 8.68889H14.3077V20.11H11.7229V8.68889ZM15.4077 8.68889H16.2766V20.11H15.4077V8.68889ZM17.3765 8.68889H19.5764V20.11H17.3765V8.68889ZM12.9768 2.07024L23.2501 7.57464H2.7696L12.9768 2.07024ZM4.50747 8.68889H5.37641V20.11H4.50747V8.68889ZM2.7476 21.3356H23.2611V22.5279H2.7476V21.3356ZM24.9 25.0015H1.10872V23.6978H1.90066C1.9805 23.7144 2.06281 23.7144 2.14265 23.6978H23.866C23.9459 23.7144 24.0282 23.7144 24.108 23.6978H24.9V25.0015Z" fill="#3C3C3C"/>
<path d="M13.0097 6.77328C13.3317 6.77328 13.6464 6.67656 13.9141 6.49536C14.1818 6.31415 14.3905 6.0566 14.5137 5.75527C14.6369 5.45394 14.6691 5.12236 14.6063 4.80247C14.5435 4.48258 14.3885 4.18874 14.1608 3.95811C13.9331 3.72748 13.6431 3.57042 13.3273 3.50679C13.0115 3.44315 12.6842 3.47581 12.3868 3.60063C12.0893 3.72544 11.8351 3.93681 11.6562 4.208C11.4773 4.47919 11.3818 4.79803 11.3818 5.12419C11.3818 5.34075 11.4239 5.55519 11.5058 5.75527C11.5876 5.95535 11.7075 6.13714 11.8586 6.29027C12.0098 6.4434 12.1892 6.56488 12.3868 6.64775C12.5843 6.73063 12.7959 6.77328 13.0097 6.77328ZM13.0097 4.54478C13.1141 4.54478 13.2162 4.57615 13.303 4.63492C13.3899 4.69368 13.4575 4.77722 13.4975 4.87494C13.5374 4.97267 13.5479 5.08021 13.5275 5.18396C13.5072 5.28771 13.4569 5.38301 13.383 5.45781C13.3092 5.53261 13.2151 5.58355 13.1127 5.60418C13.0103 5.62482 12.9041 5.61423 12.8077 5.57375C12.7112 5.53327 12.6287 5.46471 12.5707 5.37676C12.5127 5.28881 12.4818 5.1854 12.4818 5.07962C12.4928 4.94563 12.5533 4.82078 12.6511 4.72993C12.749 4.63907 12.877 4.58888 13.0097 4.58935V4.54478Z" fill="#3C3C3C"/>
</svg>
