<svg width="36" height="24" viewBox="0 0 36 24" fill="none" xmlns="http://www.w3.org/2000/svg">
<path d="M25.7535 6.49841C26.0455 6.68095 26.4106 6.75397 26.7392 6.75397C27.4329 6.75397 28.1265 6.38888 28.4916 5.73172C29.0393 4.78248 28.6742 3.54117 27.7249 3.03004C26.7757 2.4824 25.5344 2.8475 25.0233 3.79673C24.4391 4.74597 24.7677 5.95077 25.7535 6.49841ZM25.8995 4.30786C26.082 4.01579 26.3741 3.83324 26.7027 3.83324C26.8487 3.83324 27.0313 3.86975 27.1773 3.94277C27.6154 4.19833 27.798 4.78248 27.5424 5.22059C27.2868 5.6587 26.7027 5.84124 26.2646 5.58568C25.79 5.33012 25.6439 4.74597 25.8995 4.30786Z" fill="black"/>
<path d="M28.7473 9.30981H24.6948V10.3686H28.7473V9.30981Z" fill="black"/>
<path d="M28.7473 11.4639H24.6948V12.5226H28.7473V11.4639Z" fill="black"/>
<path d="M34.2967 22.4896V18.9847C34.2967 17.5244 33.1284 16.2466 31.8141 16.2466H31.449V8.36059H31.7411C32.7998 8.36059 33.676 7.48437 33.676 6.42561V3.72393C33.676 2.66517 32.7998 1.78895 31.7411 1.78895H31.449V1.35084C31.449 0.620655 30.8283 0 30.0982 0H7.71806C6.98788 0 6.36723 0.620655 6.36723 1.35084V7.9955C6.36723 8.72568 6.98788 9.34633 7.71806 9.34633H8.04665V12.9972H8.92286V15.3338H9.98163V12.9972H10.8578V9.34633H22.0661C22.2487 9.34633 22.3582 9.49237 22.3582 9.63841V16.2831H5.30846C3.59253 16.2831 2.31471 17.4514 2.31471 19.0213V22.5261H0.489258V23.5849H35.611V22.5261H34.2967V22.4896ZM31.7411 2.8112C32.2522 2.8112 32.6538 3.2128 32.6538 3.72393V6.42561C32.6538 6.93673 32.2522 7.33833 31.7411 7.33833H31.449V2.8112H31.7411ZM9.76257 11.902H9.0689V9.30982H9.76257V11.902ZM22.0296 8.25106H10.8213H8.04665H7.71806C7.53552 8.25106 7.42599 8.10502 7.42599 7.95899V1.31433C7.42599 1.13178 7.57203 1.02226 7.71806 1.02226H30.0982C30.2807 1.02226 30.3902 1.16829 30.3902 1.31433V16.2466H23.3805V9.6019C23.3805 8.87172 22.7963 8.25106 22.0296 8.25106ZM3.37348 18.9847C3.37348 17.999 4.17668 17.3053 5.30846 17.3053H31.8141C32.4712 17.3053 33.2379 18.0355 33.2379 18.9847V22.4896H3.37348V18.9847Z" fill="black"/>
</svg>
