<svg width="491" height="533" viewBox="0 0 491 533" fill="none" xmlns="http://www.w3.org/2000/svg">
<g opacity="0.7">
<path d="M417.883 118.153L459.651 190.497L417.883 262.84L334.348 262.84L292.581 190.497L334.348 118.153L417.883 118.153Z" fill="#FCE480"/>
<path opacity="0.4" d="M287.263 41.7674L329.031 114.111L287.263 186.454L203.728 186.454L161.961 114.111L203.728 41.7674L287.263 41.7674Z" fill="#FCE480"/>
<path opacity="0.8" d="M286.499 193.775L328.267 266.119L286.499 338.462L202.964 338.462L161.197 266.119L202.964 193.775L286.499 193.775Z" fill="#FCE480"/>
<path opacity="0.7" d="M286.499 345.784L328.267 418.127L286.499 490.47L202.964 490.47L161.197 418.127L202.964 345.784L286.499 345.784Z" fill="#FCE480"/>
<path opacity="0.5" d="M155.879 117.39L197.647 189.733L155.879 262.076L72.3444 262.076L30.5769 189.733L72.3443 117.39L155.879 117.39Z" fill="#FCE480"/>
<path opacity="0.6" d="M155.879 269.398L197.647 341.741L155.879 414.084L72.3444 414.084L30.5769 341.741L72.3443 269.398L155.879 269.398Z" fill="#FCE480"/>
<path d="M417.883 270.161L459.651 342.505L417.883 414.848L334.348 414.848L292.581 342.505L334.348 270.161L417.883 270.161Z" fill="#FCE480"/>
</g>
</svg>
