<svg width="27" height="19" viewBox="0 0 27 19" fill="none" xmlns="http://www.w3.org/2000/svg">
<path d="M8.55215 0.927052C8.85151 0.00574112 10.1549 0.00573993 10.4543 0.927051L11.9705 5.59358C12.1044 6.00561 12.4883 6.28457 12.9216 6.28457H17.8283C18.797 6.28457 19.1998 7.52418 18.416 8.09358L14.4465 10.9777C14.096 11.2323 13.9493 11.6837 14.0832 12.0957L15.5994 16.7622C15.8988 17.6835 14.8443 18.4497 14.0606 17.8803L10.091 14.9962C9.74051 14.7415 9.26591 14.7415 8.91542 14.9962L4.94584 17.8803C4.16212 18.4497 3.10764 17.6835 3.40699 16.7622L4.92324 12.0957C5.05712 11.6837 4.91046 11.2323 4.55997 10.9777L0.59038 8.09358C-0.193333 7.52418 0.209442 6.28457 1.17817 6.28457H6.08485C6.51807 6.28457 6.90203 6.00561 7.0359 5.59358L8.55215 0.927052Z" fill="#F9D749"/>
</svg>
