<svg width="27" height="19" viewBox="0 0 27 19" fill="none" xmlns="http://www.w3.org/2000/svg">
<path d="M9.05997 0.927052C9.35932 0.00574112 10.6627 0.00573993 10.9621 0.927051L12.4783 5.59358C12.6122 6.00561 12.9962 6.28457 13.4294 6.28457H18.3361C19.3048 6.28457 19.7076 7.52418 18.9239 8.09358L14.9543 10.9777C14.6038 11.2323 14.4571 11.6837 14.591 12.0957L16.1072 16.7622C16.4066 17.6835 15.3521 18.4497 14.5684 17.8803L10.5988 14.9962C10.2483 14.7415 9.77372 14.7415 9.42324 14.9962L5.45365 17.8803C4.66993 18.4497 3.61545 17.6835 3.91481 16.7622L5.43105 12.0957C5.56493 11.6837 5.41827 11.2323 5.06778 10.9777L1.09819 8.09358C0.314479 7.52418 0.717255 6.28457 1.68598 6.28457H6.59266C7.02589 6.28457 7.40984 6.00561 7.54372 5.59358L9.05997 0.927052Z" fill="#D7D7D7" />
</svg>
